<?xml version="1.0" encoding="utf-8"?>
<!-- Generator: Adobe Illustrator 26.3.1, SVG Export Plug-In . SVG Version: 6.00 Build 0)  -->
<svg version="1.1" id="Layer_1" xmlns="http://www.w3.org/2000/svg" xmlns:xlink="http://www.w3.org/1999/xlink" x="0px" y="0px"
	 viewBox="0 0 150 150" style="enable-background:new 0 0 150 150;" xml:space="preserve">
<path d="M130,0H20C9,0,0,9,0,20v110c0,11,9,20,20,20h52.3c0-0.1,0-0.2,0-0.3V86.5H58.6c-1.5,0-2.7-1.2-2.7-2.7v-22
	c0-1.5,1.2-2.7,2.7-2.7h13.7V50c0-6.9,2-29.4,28.4-29.4h23.8c1.5,0,2.7,1.2,2.7,2.7v22c0,0.7-0.3,1.4-0.8,1.9
	c-0.5,0.6-1.2,0.9-1.9,0.8h-16.5c-2.5,0-2.8,1.8-2.8,3.3v7.7H126c0.8,0,1.5,0.3,2,0.9c0.5,0.6,0.8,1.3,0.7,2.1l-2.3,22
	c-0.1,1.4-1.3,2.5-2.7,2.5h-18.4v63.2c0,0.1,0,0.2,0,0.3H130c11,0,20-9,20-20V20C150,9,141,0,130,0z"/>
</svg>
