<?xml version="1.0" encoding="utf-8"?>
<!-- Generator: Adobe Illustrator 26.3.1, SVG Export Plug-In . SVG Version: 6.00 Build 0)  -->
<svg version="1.1" id="Layer_1" xmlns="http://www.w3.org/2000/svg" xmlns:xlink="http://www.w3.org/1999/xlink" x="0px" y="0px"
	 viewBox="0 0 150 150" style="enable-background:new 0 0 150 150;" xml:space="preserve">
<g>
	<circle cx="75" cy="75" r="29"/>
	<path d="M130,0H20C9,0,0,9,0,20v110c0,11,9,20,20,20h110c11,0,20-9,20-20V20C150,9,141,0,130,0z M79.3,121.8
		C50,124.4,25.6,100,28.2,70.7c2-22.4,20.1-40.5,42.5-42.5c29.3-2.6,53.7,21.8,51.1,51.1C119.8,101.7,101.7,119.8,79.3,121.8z
		 M128.6,31.6l-4,0c-2.9,0-5.6-2.1-6-5c-0.5-3.5,2.3-6.6,5.8-6.6l4,0c2.9,0,5.6,2.1,6,5C134.8,28.6,132,31.6,128.6,31.6z"/>
</g>
</svg>
