<?xml version="1.0" encoding="utf-8"?>
<!-- Generator: Adobe Illustrator 26.3.1, SVG Export Plug-In . SVG Version: 6.00 Build 0)  -->
<svg version="1.1" id="Layer_1" xmlns="http://www.w3.org/2000/svg" xmlns:xlink="http://www.w3.org/1999/xlink" x="0px" y="0px"
	 viewBox="0 0 1000 1000" style="enable-background:new 0 0 1000 1000;" xml:space="preserve">
<style type="text/css">
	.st0{fill:#C40219;}
</style>
<path class="st0" d="M206.7,152.8h290c5.3,0,10.6-5.3,10.6-10.6V37.1c-4-4-6.7-6.7-10.6-10.6C383.6,27.8,279.8,67.7,200,134.2
	C192.1,139.5,196,152.8,206.7,152.8 M543.2,152.8h174.3c5.3,0,10.6-5.3,10.6-10.6V91.6c0-4-2.7-8-5.3-9.3
	C668.3,53,608.4,34.4,544.6,29.1c-6.7-1.3-12,4-12,10.6v102.4C532.6,147.5,536.6,152.8,543.2,152.8z M762.7,152.8H792
	c9.3,0,14.6-12,6.7-18.6c-9.3-8-20-16-29.3-22.6c-6.7-5.3-17.3,0-17.3,9.3v21.3C752.1,147.5,757.4,152.8,762.7,152.8z M841.2,178.1
	h-78.5c-5.3,0-10.6,5.3-10.6,10.6v57.2c0,5.3,5.3,10.6,10.6,10.6h122.4c8,0,13.3-9.3,9.3-16c-13.3-21.3-29.3-39.9-45.2-58.5
	C847.9,179.4,843.9,178.1,841.2,178.1z M716.2,178.1H543.2c-5.3,0-10.6,5.3-10.6,10.6v57.2c0,5.3,5.3,10.6,10.6,10.6h174.3
	c5.3,0,10.6-5.3,10.6-10.6v-57.2C726.8,183.4,722.8,178.1,716.2,178.1z M495.3,178.1H188.1c-9.3,0-14.6,10.6-8,17.3l53.2,57.2
	c2.7,2.7,5.3,4,8,4h254.1c5.3,0,10.6-5.3,10.6-10.6v-57.2C506,183.4,502,178.1,495.3,178.1z M351.7,375h143.7
	c5.3,0,10.6-5.3,10.6-10.6v-71.8c0-5.3-5.3-10.6-10.6-10.6H285.2c-9.3,0-14.6,10.6-8,17.3l66.5,71.8C346.4,373.6,349,375,351.7,375z
	 M543.2,375h174.3c5.3,0,10.6-5.3,10.6-10.6v-71.8c0-5.3-5.3-10.6-10.6-10.6H543.2c-5.3,0-10.6,5.3-10.6,10.6v71.8
	C532.6,369.6,536.6,375,543.2,375z M952.9,400.2H762.7c-5.3,0-10.6,5.3-10.6,10.6v280.7c0,2.7,1.3,5.3,2.7,6.7l94.4,101.1
	c4,5.3,12,4,16,0c66.5-81.1,106.4-186.2,106.4-299.3c0-30.6-2.7-61.2-9.3-90.5C962.3,404.2,958.3,400.2,952.9,400.2z M716.2,400.2
	H543.2c-5.3,0-10.6,5.3-10.6,10.6v294c0,2.7,1.3,5.3,2.7,6.7l82.5,87.8c4,4,10.6,4,16,0l91.8-97.1c1.3-1.3,2.7-4,2.7-6.7V410.9
	C726.8,405.6,722.8,400.2,716.2,400.2z M495.3,400.2H363.7c-5.3,0-10.6,5.3-10.6,10.6v433.7c0,9.3,12,14.6,18.6,6.7l131.7-139.7
	c1.3-1.3,2.7-4,2.7-6.7v-294C506,405.6,502,400.2,495.3,400.2z M649.7,833.9l70.5,75.8c4,4,9.3,4,13.3,2.7
	c37.2-21.3,70.5-46.6,101.1-77.2l0,0c4-4,4-10.6,0-14.6l-85.1-90.5c-4-4-10.6-4-16,0l-85.1,90.5
	C645.7,823.2,645.7,829.9,649.7,833.9z M692.2,917.7l-59.9-63.9c-4-4-10.6-4-16,0l-94.4,101.1c-6.7,6.7-1.3,18.6,8,17.3
	c55.9-4,109.1-17.3,157-38.6C694.9,931,697.5,923,692.2,917.7z M600.4,819.3l-73.2-78.5c-4-4-10.6-4-16,0L355.7,907l0,0l-20,21.3
	l-1.3,1.3l-27.9,30.6c-59.9-25.3-114.4-62.5-159.6-107.7C56.4,762.1,0.5,638.3,0.5,500s55.9-262.1,146.3-352.5S361,1.2,499.3,1.2
	S761.4,57,851.8,147.5c38.6,38.6,71.8,83.8,95.8,134.4c-21.3,0-35.9,0-35.9,0h-45.2l0,0H762.7c-5.3,0-10.6,5.3-10.6,10.6v71.8
	c0,5.3,5.3,10.6,10.6,10.6h129h50.5h1.3h39.9l0,0h1.3v4c9.3,38.6,14.6,79.8,14.6,121.1c0,138.3-55.9,262.1-146.3,352.5
	S637.7,998.8,500.7,998.8c-17.3,0-34.6-1.3-51.9-2.7l23.9-25.3c1.3,0,1.3-1.3,2.7-1.3l126.4-134.4
	C604.4,829.9,604.4,823.2,600.4,819.3z M305.1,923l20-21.3c1.3-1.3,2.7-4,2.7-6.7V675.6c0-9.3-12-14.6-18.6-6.7l-142.3,153
	c0,5.3,0,9.3,0,14.6c37.2,35.9,79.8,66.5,126.4,89.1C297.1,928.3,302.5,927,305.1,923z M329.1,557.2v-161c0-2.7-1.3-5.3-2.7-6.7
	L149.5,199.4c-4-5.3-12-4-16,0C108.2,230,88.3,263.2,71,297.8c-1.3,4-1.3,8,1.3,12l238.1,254.1C317.1,571.8,329.1,567.8,329.1,557.2
	z M142.8,809.9l174.3-186.2c4-4,4-10.6,0-14.6L68.3,344.4c-5.3-5.3-14.6-4-17.3,4c-16,47.9-25.3,98.4-25.3,151.6
	C25.8,618.4,69.7,727.5,142.8,809.9z"/>
</svg>
