<?xml version="1.0" encoding="utf-8"?>
<!-- Generator: Adobe Illustrator 26.3.1, SVG Export Plug-In . SVG Version: 6.00 Build 0)  -->
<svg version="1.1" id="Layer_1" xmlns="http://www.w3.org/2000/svg" xmlns:xlink="http://www.w3.org/1999/xlink" x="0px" y="0px"
	 viewBox="0 0 150 150" style="enable-background:new 0 0 150 150;" xml:space="preserve">
<g>
	<path d="M47.6,48c-2.8,0-5.6,1.8-5.6,4.7c0,2,1.5,3.7,3.5,4.3c3.9,1.1,6.8-0.8,6.8-4.3C52.2,49.9,50.4,48,47.6,48z"/>
	<path d="M73.6,57.3c2.8,0,4.6-1.9,4.6-4.6c0-3.6-3.1-5.7-7-4.3c-1.4,0.5-2.6,1.6-3.1,3C67.2,54.8,70.4,57.3,73.6,57.3z"/>
	<path d="M85.7,75c-1.8,0-3.7,1.8-3.7,3.7c0,1.9,1.8,3.7,3.7,3.7c2.8,0,4.7-1.8,4.7-3.7C90.3,76.8,88.5,75,85.7,75z"/>
	<path d="M130,0H20C9,0,0,9,0,20v110c0,11,9,20,20,20h110c11,0,20-9,20-20V20C150,9,141,0,130,0z M59.7,95.5c-4.7,0-8.4-0.9-13-1.9
		l-13,6.5l3.7-11.2C28.1,82.4,22.5,74,22.5,63.8c0-17.7,16.7-31.6,37.2-31.6C78,32.2,94,43.3,97.2,58.3c-1.2-0.2-2.4-0.2-3.6-0.2
		C75.9,58.1,62,71.3,62,87.5c0,2.7,0.4,5.3,1.2,7.8C62,95.4,60.9,95.5,59.7,95.5z M114.5,108.5l2.8,9.3l-10.2-5.6
		c-3.8,0.9-7.5,1.9-11.2,1.9c-17.7,0-31.6-12.1-31.6-27s13.9-27,31.6-27c16.7,0,31.6,12.1,31.6,27C127.5,95.5,122,102.9,114.5,108.5
		z"/>
	<path d="M106.1,75c-1.8,0-3.7,1.8-3.7,3.7c0,1.9,1.8,3.7,3.7,3.7c2.8,0,4.7-1.8,4.7-3.7C110.8,76.8,108.9,75,106.1,75z"/>
</g>
</svg>
