<svg width="36" height="36" viewBox="0 0 36 36" fill="none" xmlns="http://www.w3.org/2000/svg">
<g clip-path="url(#clip0_74_530)">
<path d="M23.9598 2.31978C25.6309 3.70305 26.8153 5.58484 27.3398 7.68978C29.5337 8.23593 31.4819 9.50031 32.8741 11.2817C34.2664 13.063 35.0228 15.2589 35.0228 17.5198C35.0228 19.7807 34.2664 21.9766 32.8741 23.7579C31.4819 25.5393 29.5337 26.8036 27.3398 27.3498C26.79 29.5392 25.5248 31.4822 23.7448 32.8705C21.9648 34.2588 19.7721 35.0127 17.5148 35.0127C15.2574 35.0127 13.0648 34.2588 11.2848 32.8705C9.50482 31.4822 8.23954 29.5392 7.68979 27.3498C5.49586 26.8036 3.54769 25.5393 2.15543 23.7579C0.763159 21.9766 0.00683594 19.7807 0.00683594 17.5198C0.00683594 15.2589 0.763159 13.063 2.15543 11.2817C3.54769 9.50031 5.49586 8.23593 7.68979 7.68978C8.10098 6.02831 8.92686 4.49827 10.0902 3.24277C11.2535 1.98728 12.7162 1.04735 14.3416 0.510893C15.9669 -0.0255632 17.7018 -0.141014 19.3839 0.175337C21.066 0.491688 22.6404 1.22951 23.9598 2.31978ZM25.8298 8.53979C25.4605 6.60366 24.4275 4.85695 22.9088 3.60056C21.3901 2.34417 19.4808 1.65676 17.5098 1.65676C15.5388 1.65676 13.6294 2.34417 12.1107 3.60056C10.5921 4.85695 9.55909 6.60366 9.18979 8.53979C9.15994 8.70386 9.08078 8.85492 8.96286 8.97285C8.84494 9.09077 8.69386 9.16993 8.52979 9.19977C6.59366 9.56907 4.84695 10.6021 3.59056 12.1207C2.33417 13.6394 1.64677 15.5488 1.64677 17.5198C1.64677 19.4908 2.33417 21.4001 3.59056 22.9188C4.84695 24.4375 6.59366 25.4705 8.52979 25.8398C8.69444 25.8683 8.84626 25.947 8.96442 26.0652C9.08257 26.1833 9.16129 26.3351 9.18979 26.4998C9.55909 28.4359 10.5921 30.1826 12.1107 31.439C13.6294 32.6954 15.5388 33.3828 17.5098 33.3828C19.4808 33.3828 21.3901 32.6954 22.9088 31.439C24.4275 30.1826 25.4605 28.4359 25.8298 26.4998C25.8629 26.3355 25.9444 26.1848 26.0638 26.0672C26.1832 25.9496 26.335 25.8704 26.4998 25.8398C28.4359 25.4705 30.1826 24.4375 31.439 22.9188C32.6954 21.4001 33.3828 19.4908 33.3828 17.5198C33.3828 15.5488 32.6954 13.6394 31.439 12.1207C30.1826 10.6021 28.4359 9.56907 26.4998 9.19977C26.3361 9.1667 26.1856 9.08668 26.0666 8.96947C25.9476 8.85227 25.8653 8.70297 25.8298 8.53979Z" fill="#E61D11"/>
<path fill-rule="evenodd" clip-rule="evenodd" d="M9.01953 17.7701C9.01953 17.7701 15.5795 21.3201 26.0195 17.7701C26.0195 17.7701 17.1995 14.2301 9.01953 17.7701Z" fill="#E61D11"/>
</g>
<defs>
<clipPath id="clip0_74_530">
<rect width="35.03" height="35.03" fill="white"/>
</clipPath>
</defs>
</svg>
